<svg xmlns="http://www.w3.org/2000/svg" viewBox="0 0 24 24" shape-rendering="crispEdges">
<rect x="4" y="1" width="16" height="1" fill="#6b5fd3"/>
<rect x="2" y="2" width="20" height="10" fill="#6b5fd3"/>
<rect x="3" y="3" width="2" height="2" fill="#8a7fe3"/>
<rect x="8" y="5" width="2" height="2" fill="#ffffff"/>
<rect x="15" y="5" width="2" height="2" fill="#ffffff"/>
<rect x="11" y="9" width="3" height="1" fill="#ffffff"/>
<rect x="3" y="16" width="18" height="6" fill="#9e95ef"/>
<rect x="5" y="22" width="14" height="1" fill="#8a7fe3"/>
<rect x="0" y="13" width="2" height="3" fill="#2e9a3e"/>
<rect x="3" y="13" width="2" height="3" fill="#d23630"/>
<rect x="6" y="13" width="2" height="3" fill="#e08a00"/>
<rect x="9" y="13" width="2" height="3" fill="#e08a00"/>
<rect x="12" y="13" width="2" height="3" fill="#2b6ca3"/>
<rect x="15" y="13" width="2" height="3" fill="#d23630"/>
<rect x="18" y="13" width="2" height="3" fill="#2e9a3e"/>
<rect x="21" y="13" width="2" height="3" fill="#2e9a3e"/>
</svg>
