<?xml version="1.0" encoding="utf-8"?>
<!-- Generator: Adobe Illustrator 23.0.3, SVG Export Plug-In . SVG Version: 6.00 Build 0)  -->
<svg version="1.1" id="Layer_1" xmlns="http://www.w3.org/2000/svg" xmlns:xlink="http://www.w3.org/1999/xlink" x="0px" y="0px"
	 viewBox="0 0 582 180" style="enable-background:new 0 0 582 180;" xml:space="preserve">
<style type="text/css">
	.st0{fill:#807F83;}
	.st1{fill:#C5351C;}
</style>
<g>
	<g>
		<path class="st0" d="M157.6,47.7c0-6.8,7.1-8.8,13.1-8.8c9.8,0,18.2,5.3,21.5,7.3c0.4,0.3,0.6,0.2,0.6-0.2V35.4
			c0-0.3,0-0.7-0.5-0.8c-3.5-0.7-11.3-3.1-20.4-3.4c-22.6-0.6-31.1,10.7-31.1,22.1c0,22,40.8,22.9,40.8,38.6c0,5.6-4.3,10.7-16,10.7
			c-5.4,0-10.7-1.2-15.5-3.5c-5.2-2.5-9-6.3-13.9-9c-4.7-2.6-10.1-4.1-15.5-4.1c-12.1,0-18.5,6.6-21.6,11.5c-0.2,0.3-0.3,0.3-0.3,0
			V48.1c0-0.2-0.2-0.3-0.4-0.3l-6,1.5l-1.1,0.3l-0.1,0l-2.3,0.6L73.7,54l-2.9,0.7l-0.6,0.2l-0.5,0.1l-1.6,0.4
			c-0.2,0-0.4,0.3-0.4,0.5v3c0,0.2,0.2,0.4,0.4,0.4l1.5,0.1c8.5,0.6,11.4,2.7,11.4,12.2c0,0,0,62.5,0,62.5v15.7
			c0,0.6,0.1,0.5,0.7,0.4v0l14.2-3.7c0.8,0.7,6.3,11.9,24.3,11.9c22.5,0,31.1-17,31.1-35.5c0-5.2-0.5-9.6-1.8-14.5
			c3.8,1.3,9.9,2.5,15.9,2.7c18.1,0.4,32.9-7.9,32.9-23.5C198.4,63.2,157.6,62.8,157.6,47.7z M114.6,150.9
			c-14.3,0-15.7-18.5-15.7-26.3v-6.1c0-8.3,1.9-23.7,16.9-23.7c15.1,0,16.6,17,16.6,27.3C132.4,133.6,131,150.9,114.6,150.9z"/>
		<path class="st1" d="M29.5,35.8c0-7.7,6.3-14.1,14.1-14.1c7.6,0,14.3,6.1,14.3,14.1c0,8-6.7,14.3-14.5,14.3
			C35.8,50.1,29.5,43.7,29.5,35.8z"/>
		<path class="st1" d="M57.4,58.6L16.6,69.1c-0.2,0.1-0.4,0.3-0.4,0.5v3.2c0,0.2,0.2,0.4,0.5,0.5l0.9,0.1
			c11.8,0.9,19.9,3.4,19.9,18.1v66.3c0,0.6,0.1,0.5,0.7,0.4l19.2-5l0,0c0.6-0.1,0.6-0.5,0.6-1V58.9C57.9,58.6,57.7,58.5,57.4,58.6z"
			/>
	</g>
	<g>
		<path class="st0" d="M233.1,46.4l-13,1.4l-0.5,0.1v2.4l0.5,0.1c5.7,0.8,5.7,0.8,5.7,5.5v34.1h8V46.3L233.1,46.4z"/>
		<path class="st0" d="M260.1,59.2c-5.2,0-8.4,3.8-9.9,6.3v-6.4l-0.7,0.1l-11.2,2l-0.5,0.1v2.3l0.6,0c3.6,0.1,4.4,0.9,4.4,4.9v21.3
			h7.4V74.2c0-4.2,3.4-9.6,7-9.6c3.4,0,3.5,3.3,3.5,8.6v16.7h7.4V68.6C268.1,62.6,265.3,59.2,260.1,59.2z"/>
		<path class="st0" d="M285,71.2c-2.8-1.6-5.3-3-5.3-5.2c0-2.4,2.4-2.8,3.7-2.8c2.9,0,5.4,1.8,6.6,2.6c0.2,0.1,0.3,0.2,0.4,0.3
			l0.9,0.6v-6.2l-0.5-0.1c-0.1,0-0.3-0.1-0.5-0.1c-1.3-0.3-3.8-0.9-6.6-0.9c-8.1,0-10.9,4.6-10.9,8.9c0,5,4.2,7.4,8,9.5
			c3,1.7,5.6,3.1,5.6,5.5c0,2.3-1.7,3.6-4.7,3.6c-3.4,0-6.3-2-7.8-3.1l-1-0.7v6.4l0.4,0.1c1.2,0.3,4.1,1.2,8.1,1.2
			c7.4,0,11.8-3.4,11.8-9.2C293.3,75.8,288.7,73.2,285,71.2z"/>
		<path class="st0" d="M308.5,59.9V48.8l-1,0.9l-6.2,5.5l-0.2,0.2v4.6h-4.8v3.6h4.8V82c0,8,4.5,8.6,10,8.6c1.5,0,3-0.3,4.3-0.5
			l0.5-0.1v-3.8l-0.7,0.2c-0.7,0.2-1.4,0.2-2.2,0.2c-4.3,0-4.5-1.4-4.5-5.6V63.6h8.1v-3.7H308.5z"/>
		<path class="st0" d="M320.7,61.2l-0.5,0.1v2.3l0.6,0c3.3,0.1,4.2,0.7,4.2,5v21.3h7.4V59.1l-0.7,0.1L320.7,61.2z M328.7,55.5
			c2.5,0,4.6-2.1,4.6-4.5c0-2.5-2-4.4-4.6-4.4c-2.5,0-4.5,2-4.5,4.4C324.2,53.5,326.3,55.5,328.7,55.5z"/>
		<path class="st0" d="M348.4,59.9V48.8l-1,0.9l-6.2,5.5l-0.2,0.2v4.6h-4.9v3.6h4.9V82c0,8,4.5,8.6,10,8.6c1.4,0,2.7-0.2,4.3-0.5
			l0.5-0.1v-3.8l-0.7,0.2c-0.6,0.2-1.4,0.2-2.1,0.2c-4.3,0-4.5-1.4-4.5-5.6V63.6h8.1v-3.7H348.4z"/>
		<path class="st0" d="M389.2,59.3l-11,2l-0.5,0.1v2.3l0.6,0c3.2,0.1,4.2,0.8,4.2,5v6.8c0,4.8-2.5,9.8-6.1,9.8
			c-2.1,0-4.5-0.8-4.5-6.7V59.1l-0.7,0.1l-11,2l-0.5,0.1v2.3l0.6,0c3.3,0.1,4.2,0.7,4.2,5v8.8c0,4.6,0,13.2,8.9,13.2
			c3.9,0,7-2,9.1-5.8v5.2h7.4V59.1L389.2,59.3z"/>
		<path class="st0" d="M405.5,59.9V48.8l-1,0.9l-6.2,5.5l-0.2,0.2v4.6h-4.8v3.6h4.8V82c0,8,4.5,8.6,10,8.6c1.5,0,3-0.3,4.3-0.5
			l0.5-0.1v-3.8l-0.7,0.2c-0.6,0.2-1.4,0.2-2.1,0.2c-4.3,0-4.5-1.4-4.5-5.6V63.6h8.1v-3.7H405.5z"/>
		<path class="st0" d="M440.7,71.7c0-8.2-4-12.4-12-12.4c-9,0-13.6,4.9-13.6,14.6c0,10.5,5.9,16.7,15.8,16.7c4.3,0,7.6-1.2,8.9-1.7
			l0.4-0.1c0,0,0-0.4,0-0.4v-3.6l-0.8,0.3c-1.1,0.5-3.2,1-5.6,1c-7.6,0-10.5-7.3-10.7-13.8h17.6L440.7,71.7L440.7,71.7z M428.5,62.5
			c4,0,4.8,3.5,4.9,6h-10.2C423.3,66.5,424.5,62.5,428.5,62.5z"/>
		<path class="st0" d="M477.2,48.7c2.8,0,3.3,2.9,3.4,4.6l0,0.6h8.2l-0.1-0.7c-0.8-5.4-4.5-7.8-11.9-7.8c-6.4,0-10.2,4.1-10.2,11
			v3.5h-5v3.7h5v26.3h7.4V63.6h8.2v-3.7h-8.2v-5C473.9,51.7,474.3,48.7,477.2,48.7z"/>
		<path class="st0" d="M497.7,59.2c-9.4,0-14,5.1-14,15.7c0,10.4,4.7,15.7,14,15.7c9.4,0,14-5.1,14-15.7
			C511.7,65.1,506.4,59.2,497.7,59.2z M497.7,87.3c-5.3,0-6-6.6-6-12.4c0-6.1,0.7-12.4,6-12.4c5.2,0,6,6.3,6,12.4
			C503.7,82.4,502.7,87.3,497.7,87.3z"/>
		<path class="st0" d="M537,66v-6.4l-0.5-0.1c-1.2-0.2-2.4-0.3-3.5-0.3c-4,0-6.1,3.1-7.3,5.7v-5.8l-0.7,0.1l-11.1,2l-0.5,0.1v2.3
			l0.6,0c3.6,0.1,4.3,0.9,4.3,4.9v21.3h7.4V74.5c0-2.6,0.7-8.6,7.5-8.6c0.8,0,1.6,0.3,2.5,0.6l0.5,0.2l0.8,0.2L537,66L537,66z"/>
	</g>
	<g>
		<path class="st0" d="M247.8,127.2c4.1-1.8,6.3-5,6.3-9.4c0-7.1-5.1-10.6-15.3-10.6h-19v2.5l0.5,0.1c5.4,0.8,5.4,0.8,5.4,6.5v33.8
			H238c5,0,18.2,0,18.2-11.7C256.2,132.5,253.4,128.8,247.8,127.2z M239.1,146c-3.9,0-5.4-0.2-5.4-1.9v-14.5h5.1
			c4.3,0,9.5,1.3,9.5,7.7C248.2,143.4,245.5,146,239.1,146z M233.7,113.9c0-2.4,0.5-2.6,4.2-2.6c5.8,0,8.2,2,8.2,6.8
			c0,4.9-2.8,7.3-8.8,7.3h-3.6V113.9z"/>
		<path class="st0" d="M272.7,119.4c-9.6,0-11.6,5.1-12.2,8.9l-0.1,0.7h8.7v-0.6c0-3.5,0.6-5.7,3.7-5.7c3.1,0,3.3,3,3.3,7.7v2.6
			c-13.4,0.6-16.3,5.8-16.3,10.1c0,4.3,4,7.7,8.9,7.7c3.9,0,6.1-1.9,7.4-3.3v2.6h7.4v-19.5C283.4,123.9,281.6,119.4,272.7,119.4z
			 M270.9,146.3c-1.9,0-3.1-1.6-3.1-4.2c0-3.5,2.8-5.3,8.3-5.6v3C276.1,142.8,274.5,146.3,270.9,146.3z"/>
		<path class="st0" d="M300.2,131.4c-2.8-1.6-5.3-3-5.3-5.2c0-2.4,2.4-2.8,3.8-2.8c2.9,0,5.5,1.8,6.7,2.6c0.1,0.1,0.2,0.2,0.4,0.3
			l0.9,0.6v-6.2l-0.5-0.1c-0.1,0-0.3-0.1-0.5-0.1c-1.3-0.3-3.8-0.9-6.6-0.9c-8,0-10.9,4.6-10.9,8.9c0,5,4.2,7.4,8,9.5
			c3,1.7,5.6,3.1,5.6,5.5c0,2.3-1.7,3.6-4.8,3.6c-3.4,0-6.3-2-7.8-3.1l-0.9-0.7v6.4l0.4,0.1c1.2,0.3,4.1,1.1,8.1,1.1
			c7.4,0,11.7-3.4,11.7-9.2C308.5,136,303.9,133.4,300.2,131.4z"/>
		<path class="st0" d="M311.2,121.4l-0.5,0.1v2.3l0.6,0c3.3,0.1,4.2,0.7,4.2,5v21.3h7.4v-30.8l-0.7,0.1L311.2,121.4z M319.2,115.7
			c2.5,0,4.6-2.1,4.6-4.5c0-2.4-2.1-4.4-4.5-4.4s-4.5,2-4.5,4.4C314.8,113.7,316.8,115.7,319.2,115.7z"/>
		<path class="st0" d="M340.5,119.4c-8.3,0-12.9,5.4-12.9,15.3c0,9.9,5.5,16.1,14.4,16.1c4.8,0,6.5-0.6,8.5-1.4l0.5-0.2l0.4-0.1
			c0,0,0-0.4,0-0.4v-3.6l-0.8,0.3c-1.4,0.5-3.9,0.8-5.8,0.8c-5.7,0-9.2-5.2-9.2-13.6c0-6.9,1.3-9.9,4.5-9.9c3.2,0,3.9,3.1,3.9,5.8
			v0.6h8.5v-0.6C352.4,123.1,347.6,119.4,340.5,119.4z"/>
		<path class="st0" d="M391.8,124.5c-4.6-2.4-8.5-4.4-8.5-8.4c0-3.4,2-5.4,5.4-5.4c4.7,0,9.1,1.9,10.8,2.7l0.8,0.4v-6l-0.5-0.1h0
			c-1.7-0.3-5.7-1.1-10-1.1c-9.1,0-14.5,4.2-14.5,11.3c0,7.3,6,10.5,11.4,13.3c4.7,2.4,8.8,4.6,8.8,8.9c0,5.5-3.9,6.7-7.1,6.7
			c-4.5,0-9.2-2.3-11.5-3.7l-0.9-0.6v6.6l0.5,0.1l0.4,0.1c1.6,0.4,6.1,1.5,10.6,1.5c10.3,0,16.1-4.6,16.1-12.8
			C403.4,130.5,397.2,127.3,391.8,124.5z"/>
		<path class="st0" d="M419.1,119.4c-8.4,0-13,5.4-13,15.3c0,9.9,5.5,16.1,14.4,16.1c4.9,0,6.5-0.6,8.5-1.3l0.5-0.2l0.4-0.1v-0.4
			v-3.6l-0.8,0.3c-1.4,0.5-3.9,0.8-5.7,0.8c-5.7,0-9.3-5.2-9.3-13.6c0-6.9,1.4-9.9,4.5-9.9c3.2,0,3.8,3.1,3.8,5.8v0.6h8.5v-0.6
			C431.1,123.1,426.3,119.4,419.1,119.4z"/>
		<path class="st0" d="M433.4,121.4l-0.5,0.1v2.3l0.6,0c3.3,0.1,4.2,0.7,4.2,5v21.3h7.4v-30.8l-0.7,0.1L433.4,121.4z M441.5,115.7
			c2.5,0,4.6-2.1,4.6-4.5c0-2.4-2.1-4.4-4.6-4.4c-2.5,0-4.5,2-4.5,4.4C437,113.7,439,115.7,441.5,115.7z"/>
		<path class="st0" d="M475.4,131.9c0-8.2-4.1-12.4-12.1-12.4c-9,0-13.6,4.9-13.6,14.6c0,10.5,5.9,16.7,15.8,16.7
			c4.4,0,7.8-1.3,8.9-1.7l0.4-0.1v-4l-0.8,0.4c-1.2,0.5-3.2,1-5.6,1c-7.7,0-10.5-7.3-10.7-13.8h17.6L475.4,131.9L475.4,131.9z
			 M463.1,122.7c3.8,0,4.8,3.2,4.9,6h-10.2C458,126.7,459.2,122.7,463.1,122.7z"/>
		<path class="st0" d="M499.7,119.4c-5.2,0-8.4,3.8-9.9,6.3v-6.4l-0.7,0.1l-11.2,1.9l-0.5,0.1v2.3l0.6,0c3.6,0.1,4.4,0.9,4.4,5v21.3
			h7.4v-15.7c0-4.2,3.4-9.6,7-9.6c3.4,0,3.5,3.3,3.5,8.6v16.7h7.4v-21.3C507.8,122.8,505,119.4,499.7,119.4z"/>
		<path class="st0" d="M525,119.4c-8.3,0-12.9,5.4-12.9,15.3c0,9.9,5.5,16.1,14.4,16.1c4.9,0,6.5-0.6,8.5-1.3l0.5-0.2l0.4-0.1
			c0,0,0-0.4,0-0.4v-3.6l-0.8,0.3c-1.4,0.5-3.9,0.8-5.8,0.8c-5.6,0-9.3-5.3-9.3-13.6c0-6.9,1.4-9.9,4.6-9.9c3.2,0,3.9,3.1,3.9,5.8
			v0.6h8.5v-0.6C537,123.1,532.2,119.4,525,119.4z"/>
		<path class="st0" d="M565.9,131.9c0-8.2-4-12.4-12.1-12.4c-9,0-13.6,4.9-13.6,14.6c0,10.5,5.9,16.7,15.8,16.7c4.4,0,7.7-1.2,9-1.7
			l0.4-0.1c0,0,0-0.4,0-0.4v-3.6l-0.8,0.4c-0.4,0.2-2.6,1-5.6,1c-7.7,0-10.5-7.3-10.7-13.8h17.7V131.9z M553.5,122.7
			c3.8,0,4.8,3.2,4.9,6h-10.2C548.4,126.7,549.6,122.7,553.5,122.7z"/>
	</g>
</g>
</svg>
