<?xml version="1.0" encoding="utf-8"?>
<!-- Generator: Adobe Illustrator 23.0.3, SVG Export Plug-In . SVG Version: 6.00 Build 0)  -->
<svg version="1.1" id="Layer_1" xmlns="http://www.w3.org/2000/svg" xmlns:xlink="http://www.w3.org/1999/xlink" x="0px" y="0px"
	 viewBox="0 0 260.1 71.2" style="enable-background:new 0 0 260.1 71.2;" xml:space="preserve">
<style type="text/css">
	.st0{fill:#001A70;}
	.st1{fill:#807F82;}
</style>
<path class="st0" d="M20.4,36.2h-2v2.6h2C20.4,38.8,20.4,36.2,20.4,36.2z M11.4,55.8c2.9,3.9,8.1,3,8.1,3c0.6-5.5-1.6-7.3-1.6-7.3
	c-1.4,2.9,0.7,6.5,0.7,6.5C15.5,55,11.4,55.8,11.4,55.8z M16.8,25.5l-1-0.9c-2.4,0.6-4.1,2.7-4.1,2.7c1.1-2.7,0.5-5.2,0-6.6L11,20.2
	c-2.1,4,0.2,8.3,0.2,8.3C14.4,27.7,16,26.4,16.8,25.5z M23.5,61.5c-0.1-1.7-0.4-3-0.8-4h-2c0.5,1.9,1.7,3.3,1.7,3.3
	c-3.6-2.3-7.5-0.9-7.5-0.9C18.6,63.3,23.5,61.5,23.5,61.5z M23,32.3v22.5h11.1c1.3,0,2.5,1,2.5,1v-18c-6.7-0.2-8.1-5.5-8.1-5.5
	S23,32.3,23,32.3z M28.3,45.9h-0.8v4.3h-1.1v-4.3h-0.8v-1h2.7L28.3,45.9L28.3,45.9z M33.6,50.3c-0.3,0-0.7-0.1-0.9-0.3v-1
	c0.2,0.2,0.5,0.3,0.8,0.3c0.3,0,0.6-0.2,0.6-0.6c0-0.4-0.3-0.6-0.6-0.8c-0.6-0.4-1-0.8-1-1.6c0-0.8,0.5-1.6,1.4-1.6
	c0.3,0,0.7,0.1,0.9,0.3v1c-0.2-0.2-0.5-0.3-0.8-0.3c-0.3,0-0.5,0.2-0.5,0.5c0,0.9,1.6,0.9,1.6,2.4C35.1,49.6,34.5,50.3,33.6,50.3z
	 M34.3,38.4h1v5.3h-1V38.4z M31,38.4h1.1c0.7,0,1.9,0.1,1.9,1.5c0,0.6-0.2,1.1-0.8,1.4l0.9,2.4H33l-0.9-2.5h0v2.5h-1L31,38.4
	L31,38.4z M32.1,50.3H31l-0.2-0.9h-1.1l-0.2,0.9h-1l1.2-5.3h1.1L32.1,50.3z M30.8,38.4v1h-1.1v1.2h0.9v1h-0.9v1.2h1.1v1h-2.1v-5.3
	l-1.5,5.3h-0.9l-1.5-5.3h1.1l0.6,2.6c0.1,0.3,0.1,0.6,0.2,0.9h0c0.1-0.3,0.1-0.6,0.2-0.9l0.6-2.5L30.8,38.4
	C30.8,38.4,30.8,38.4,30.8,38.4z M48.9,20.6l-3.3,3.6l0,5.8c0,0-0.1,1-0.3,1.4h2.1l6.1-6.1L48.9,20.6z M20.4,48.4h-2V51h2
	C20.4,51,20.4,48.4,20.4,48.4z M23.8,23.3l4.3,4.2v-3.3L23.8,20C23.8,20,23.8,23.3,23.8,23.3z M20.4,59.5c0.3,0,0.5-0.2,0.5-0.5
	c0-0.3-0.2-0.5-0.5-0.5s-0.5,0.2-0.5,0.5C19.9,59.3,20.1,59.5,20.4,59.5z M12.6,24.9c0,0.3,0.2,0.5,0.5,0.5c0.3,0,0.5-0.2,0.5-0.5
	c0-0.3-0.2-0.5-0.5-0.5S12.6,24.7,12.6,24.9z M20.4,56C20.4,56.2,20.5,55.9,20.4,56l0.1-3.2L20,53.3C20.3,54.1,20.4,55.3,20.4,56z
	 M28.1,29.2v-0.7l-3.2-3.2h-7.4l4.2,3.8H28.1z M12,20.2c0,0-0.3-1.7,1.5-4.3H7.4C7.4,15.9,7.7,16.6,12,20.2z M6.7,29.7
	c-1.1,4.8,2.9,8.2,2.9,8.2c4.6-3.1,4.6-5.9,4.6-5.9c-3.1,0.8-4.5,4.7-4.5,4.7C9.9,32.3,6.7,29.7,6.7,29.7z M10.3,31.9
	c0.9-4.2-1.8-7.4-1.8-7.4C6.6,29,10,33.1,10,33.1c5.1-2.2,5.5-5,5.5-5C12.3,28.3,10.3,31.9,10.3,31.9z M10.7,33.9
	c0-0.3-0.2-0.5-0.5-0.5c-0.3,0-0.5,0.2-0.5,0.5c0,0.3,0.2,0.5,0.5,0.5C10.5,34.4,10.7,34.1,10.7,33.9z M35.5,58.4h3.2
	c0,0,0.2-1.4,1.1-1.4h13.3V33.7l-1.3-1.4v23.1H39.9c0,0-1.6,0.1-2.8,1.7c0,0-1-1.5-3-1.6H22.4v-23L21,34V57h13
	C33.9,57,35.5,57.1,35.5,58.4z M14.8,15.6c-3.3,3.6-1.6,8.5-1.6,8.5c5.5-0.3,6.9-2.9,6.9-2.9c-3.1-0.9-6.2,1.8-6.2,1.8
	C16.2,19.5,14.8,15.6,14.8,15.6z M30.4,47.1l-0.1-0.8h0l-0.1,0.8l-0.2,1.4h0.7L30.4,47.1z M61,57.1c0.8-0.5,1.6-1.2,2.2-2.1
	c0,0-1.8-0.2-3.8,0.5L61,57.1z M64.4,36c0,0-1.4-3.8-4.6-4.6c0,0,0,2.9,4.7,5.8c0,0,3.9-3.5,2.7-8.2C67.2,29,64.1,31.7,64.4,36z
	 M58.5,47.5c0,0-1.8,2.2-0.1,7.5c0,0,5.3-0.2,7.4-4.5c0,0-4.2,0.1-6.7,3.5C59.1,53.9,60.4,50,58.5,47.5z M64.3,40.7
	c0,0-0.8-4-3.7-5.3c0,0-0.5,2.8,3.6,6.5c0,0,4.5-2.8,4.1-7.6C68.3,34.3,64.7,36.5,64.3,40.7z M60.6,39.5c0,0-1,2.7,2.4,7.1
	c0,0,4.9-1.9,5.4-6.8c0,0-3.9,1.5-5.1,5.6C63.3,45.4,63.3,41.3,60.6,39.5z M63.7,43.1c0.3,0,0.5-0.2,0.5-0.5s-0.2-0.5-0.5-0.5
	c-0.3,0-0.5,0.2-0.5,0.5S63.4,43.1,63.7,43.1z M60.8,51.4c0-0.3-0.2-0.5-0.5-0.5c-0.3,0-0.5,0.2-0.5,0.5s0.2,0.5,0.5,0.5
	S60.8,51.7,60.8,51.4z M19.8,22.5L19.8,22.5c-0.2,0.1-1.5,1.4-3.6,1.6l0.7,0.7l7.4,0L22,22.5l0,0l-1.2-1.2
	C20.9,21.4,20,22.4,19.8,22.5z M48.2,46.3L48.2,46.3l-0.1,0.8l-0.2,1.4h0.7l-0.3-1.4L48.2,46.3z M32.9,40c0-0.4-0.2-0.7-0.7-0.7
	h-0.1v1.4l0.2,0C32.7,40.7,32.9,40.4,32.9,40z M37.5,37.6v18.1c0,0,1-1,2.5-1h11.2V32.3h-6.1C45.1,32.3,43.4,37.6,37.5,37.6z
	 M38.8,38.5h1v4.3H41v1h-2.2L38.8,38.5L38.8,38.5z M42.2,50.3L42,46.4h0l-0.2,1.3l-0.5,2.5h-0.8L40,47.7l-0.2-1.2v-0.1h0l-0.2,3.8
	h-1.1L39,45h1.4l0.5,3.2h0l0.4-3.2h1.4l0.6,5.3H42.2z M49,50.3l-0.2-0.9h-1.1l-0.2,0.9h-1l1.2-5.3h1.1l1.3,5.3H49z M45.8,38.5H47
	l0.3,0.7c0.1,0.3,0.2,0.5,0.3,0.8h0c0-0.3,0.1-0.5,0.2-0.8l0.3-0.7h1.1L48.1,41l1.2,2.8h-1.2l-0.3-0.8c-0.1-0.3-0.2-0.5-0.2-0.8h0
	c-0.1,0.3-0.1,0.5-0.2,0.8L47,43.8h-1.2l1.1-2.8L45.8,38.5z M46.1,45v1H45v1.2h0.9v1H45v1.2h1.1v1h-2.1v-5.3L46.1,45L46.1,45z
	 M43.4,42.9c0.5,0,0.5-0.4,0.5-0.8v-3.7h1v3.9c0,0.6-0.1,1.5-1.6,1.5c-1,0-1.6-0.5-1.6-1.5v-4h1.1v3.5
	C42.8,42.3,42.8,42.9,43.4,42.9z M23.1,19.4c0,0-0.5,0.7-2.3,1.1l2.3,2.1V19.4z M29,28.7c0,5.6,3.5,8.3,7.9,8.3s7.9-2.6,7.9-8.3
	s0-16.1,0-16.1H29C29,12.6,29,23.1,29,28.7z M32.8,17.3v-2.4h7.4v3.4h2.5v2.5h-2.4v1.1h2.4v2.6h-2.4v8h-2l-2.8-2.8l-2.6,2.6
	l-1.9-1.9l4.3-4.3l2.2,2.2v-11C37.4,17.3,32.8,17.3,32.8,17.3z M22.2,29.8l1.9,1.7h4.3c-0.2-0.3-0.1-1.6-0.1-1.6L22.2,29.8z
	 M56.5,51.1c0,0-0.3,0.4-0.5,0.9l1,1.1C57,52.4,56.8,51.7,56.5,51.1z M16.2,55.4c1.6-5.3-0.3-7.5-0.3-7.5c-1.9,2.6-0.4,6.5-0.4,6.5
	C12.8,51,8.7,51,8.7,51C10.9,55.4,16.2,55.4,16.2,55.4z M15.9,20.2c5.5,0.6,7.3-1.6,7.3-1.6c-2.9-1.4-6.5,0.7-6.5,0.7
	c2.9-3.1,2.2-7.2,2.2-7.2C15,15,15.9,20.2,15.9,20.2z M27.5,59.2c0.3,3.2,3.8,5.2,3.8,5.2c-4.2-0.9-7.4,1.8-7.4,1.8
	c4.5,1.9,8.5-1.5,8.5-1.5C30.3,59.6,27.5,59.2,27.5,59.2z M13.4,51.5c2.5-5,1-7.4,1-7.4c-2.3,2.3-1.5,6.3-1.5,6.3
	c-2-3.8-6.1-4.5-6.1-4.5C8.2,50.6,13.4,51.5,13.4,51.5z M24.5,57.5l-0.7,0c0,3,2.9,5.4,2.9,5.4c-4-1.7-7.5,0.4-7.5,0.4
	c4.1,2.7,8.7,0,8.7,0C27,59.8,25.4,58.2,24.5,57.5z M14.3,59.8c0,0,0.8-0.5,1.9-0.6L15,58.9l-0.1,0.2c0.1-0.1,0.1-0.2,0.1-0.2
	l-5.4,5.7c0,0-0.6,0.9,0,1.5c0,0,0.5,0.4,1.3-0.1l5.2-4.6C15.5,61.1,14.4,60.2,14.3,59.8z M11.4,47.2c3.3-4.5,2.3-7.1,2.3-7.1
	C11,41.9,11,46,11,46c-1.3-4.1-5.2-5.5-5.2-5.5C6.4,45.4,11.4,47.2,11.4,47.2z M14.1,15.3L7.7,8.9c0,0-2.7,1.9-0.6,6.4
	C7.1,15.3,14.1,15.3,14.1,15.3z M17,13l-3.8-3.8c-2.3-2.3-5.1-0.8-5.1-0.8l7.4,7.4C16.1,13.8,17,13,17,13z M10.1,43.3
	c0,0.3,0.2,0.5,0.5,0.5c0.3,0,0.5-0.2,0.5-0.5c0-0.3-0.2-0.5-0.5-0.5C10.3,42.8,10.1,43,10.1,43.3z M10.1,42.6
	c4-3.8,3.5-6.6,3.5-6.6c-2.9,1.3-3.6,5.4-3.6,5.4c-0.5-4.3-4.1-6.3-4.1-6.3C5.5,39.9,10.1,42.6,10.1,42.6z M13.6,52
	c0,0.3,0.2,0.5,0.5,0.5s0.5-0.2,0.5-0.5c0-0.3-0.2-0.5-0.5-0.5C13.8,51.5,13.6,51.7,13.6,52z M54.2,59.1c0.3,0,0.5-0.2,0.5-0.5
	s-0.2-0.5-0.5-0.5c-0.3,0-0.5,0.2-0.5,0.5S53.9,59.1,54.2,59.1z M56.8,58.4l-1.7-1.4c0,0.4,0.1,0.9,0.2,1.4
	C55.2,58.4,55.9,58.5,56.8,58.4z M61.6,49.9c0,0,0.7-4.1-1.7-6.3c0,0-1.4,2.5,1.2,7.4c0,0,5.2-1.1,6.5-5.8
	C67.5,45.2,63.4,46,61.6,49.9z M29.2,63.4c0-0.3-0.2-0.5-0.5-0.5s-0.5,0.2-0.5,0.5c0,0.3,0.2,0.5,0.5,0.5
	C29,63.9,29.2,63.7,29.2,63.4z M52.2,60.5c0,0,1-1.3,1.6-3l-2,0c-0.3,1-0.5,2.2-0.6,3.8c0,0,4.3,1.4,7.7-1l-1.3-1.1
	C56.1,59,54.1,59.2,52.2,60.5z M53.6,52.6v2.6l11.6,9.6h2.3L55.7,52.6H53.6z M36.6,63.8V65c-0.6-0.9-2.7-4.1-5.2-4.2
	c0,0,0.8,2.9,4.5,4.5c0,0-4.6,0.3-6.5,2.8c0,0,4,0.4,7.2-2.8v2h1.2v-2.1v-1.4L36.6,63.8L36.6,63.8z M38.7,65.3
	c3.7-1.7,4.5-4.6,4.5-4.6c-2.9,0.2-5.3,4.5-5.3,4.5c3.2,3.3,7.3,2.9,7.3,2.9C43.3,65.5,38.7,65.3,38.7,65.3z M43.4,64.3
	c0,0,3.5-2.1,3.7-5.3c0,0-2.8,0.5-4.9,5.6c0,0,4.1,3.3,8.6,1.3C50.8,65.8,47.6,63.2,43.4,64.3z M48,62.7c0,0,2.7-2.4,2.8-5.3l-1,0
	c-0.9,0.8-2.2,2.4-2.9,5.8c0,0,4.6,2.5,8.7-0.2C55.5,63,51.9,61,48,62.7z M45.5,63.2c0,0.3,0.2,0.5,0.5,0.5c0.3,0,0.5-0.2,0.5-0.5
	s-0.2-0.5-0.5-0.5C45.7,62.7,45.5,62.9,45.5,63.2z M62.7,27.8c0,0,2.5-4.6-0.2-8.7c0,0-2,3.6-0.3,7.6c0,0-2.7-3.1-5.9-2.7
	C56.3,24,57.3,26.7,62.7,27.8z M50.9,17l1.5-1.5c-1.2-0.3-3.6-0.7-5.5,0.7C46.9,16.2,47.9,17.3,50.9,17z M60.7,24.9
	c0.3,0,0.5-0.2,0.5-0.5s-0.2-0.5-0.5-0.5c-0.3,0-0.5,0.2-0.5,0.5S60.4,24.9,60.7,24.9z M64,32.4c0,0,3.3-4.1,1.3-8.6
	c0,0-2.6,3.2-1.6,7.4c0,0-2.1-3.5-5.3-3.7C58.4,27.5,58.9,30.3,64,32.4z M56.9,9.2c1.5,0.8,2.8,0,2.8,0c1.7-0.8,2.9,0.3,2.9,0.3
	c1.2,0.9,1,2.1,1,2.1c0,0.9-0.3,1-0.3,1c-0.6,0.4-0.4-0.3-0.4-0.3c0,0,0.1-0.5,0.1-0.5c0.2-2.1-1.7-2.4-1.7-2.4
	c-2-0.4-2.5,1.5-2.5,1.5c-0.1,0.5-0.1,1-0.1,1.4l-2.5-2.5l0.1,2.1l5.6,5.6h2l-2-2c1.1,0.3,2,0.4,2,0.4c2.9-0.2,3.2-2.9,3.2-2.9
	c0.8-2.9-2-5.2-2-5.2c-1.8-1.6-4.5-1.7-4.5-1.7c-3.9-0.4-5.3-2.9-5.3-2.9C54.9,4.3,55,6,55,6C55.3,8.6,56.9,9.2,56.9,9.2z
	 M63.3,33.2c0,0.3,0.2,0.5,0.5,0.5c0.3,0,0.5-0.2,0.5-0.5s-0.2-0.5-0.5-0.5C63.5,32.7,63.3,33,63.3,33.2z M52.7,15.1l1.2-1.2
	c-0.5-1.7-1.5-3.7-4-5C49.8,9,49.7,12.6,52.7,15.1z M55.6,48.7h-2v2.6h2V48.7z M57.2,23c0.9,0.3,2,0.5,3.4,0.5c0,0,0.6-1.8,0.3-4.1
	l-1.8,1.7c0.2,0.5,0.4,0.9,0.7,1.4c0,0-0.5-0.4-1.3-0.8L57.2,23z M18.4,17.5c0,0.3,0.2,0.5,0.5,0.5c0.3,0,0.5-0.2,0.5-0.5
	c0-0.3-0.2-0.5-0.5-0.5C18.7,17,18.4,17.2,18.4,17.5z M61.1,18.1l-5.2-5.2L51.2,18l5,5L61.1,18.1z M50,18.3l-1,1.3l5.7,5.7l1.2-1.2
	L50,18.3z M55.5,36h-2v2.6h2V36z M31.1,11.3c0,0,1.6,1.1,4.4-0.9C35.5,10.4,32,9,31.1,11.3z M49.3,13.1c0,0-1.6-0.5-3.6,0.2l0,1.8
	c1.2,0,2.5-0.3,4.7-1.5c0,0-1.1-5.2-5.8-6.5C44.6,7.2,45.4,11.3,49.3,13.1z M28.2,15.4l0-1.8c-2-0.6-4-0.2-4-0.2
	c3.8-2,4.5-6.1,4.5-6.1c-4.7,1.4-5.6,6.6-5.6,6.6C25.3,15.1,27,15.4,28.2,15.4z M26.7,16.4c-2.6-1.9-6.5-0.4-6.5-0.4
	c3.4-2.6,3.4-6.8,3.4-6.8c-4.4,2.2-4.4,7.5-4.4,7.5C24.6,18.3,26.7,16.4,26.7,16.4z M26.4,12.5c0,0.3,0.2,0.5,0.5,0.5
	c0.3,0,0.5-0.2,0.5-0.5c0-0.3-0.2-0.5-0.5-0.5C26.7,12.1,26.4,12.3,26.4,12.5z M27.6,12l3.7-0.1c-1.1-0.7-2.4-0.7-2.4-0.7
	c4.1-1.3,5.3-4.9,5.3-4.9c-4.9,0.6-6.7,5.5-6.7,5.5C27.5,12,27.6,12,27.6,12z M47.2,12.3c0-0.3-0.2-0.5-0.5-0.5s-0.5,0.2-0.5,0.5
	s0.2,0.5,0.5,0.5C46.9,12.8,47.2,12.5,47.2,12.3z M44.6,11.3c0,0-1.2,0-2.4,0.7l3.7,0.1c0.1-0.1,0.1-0.1,0.1-0.1
	c0,0-1.8-4.9-6.7-5.5C39.3,6.4,40.5,10,44.6,11.3z M36.7,10.8c0.4,0,0.7-0.3,0.7-0.6s-0.3-0.6-0.7-0.6s-0.7,0.3-0.7,0.6
	C36.1,10.5,36.4,10.8,36.7,10.8z M42.4,11.1c-1-2.3-4.5-0.7-4.5-0.7C40.8,12.2,42.4,11.1,42.4,11.1z"/>
<g>
	<path class="st1" d="M86.4,47.9c-0.1,0.8-0.4,1.5-0.9,2c-0.5,0.5-1.2,0.7-2.1,0.7c-0.9,0-1.7-0.3-2.3-1c-0.6-0.7-0.9-1.6-0.9-2.7
		v-0.8c0-0.7,0.1-1.4,0.4-2s0.6-1,1.1-1.3c0.5-0.3,1.1-0.5,1.7-0.5c0.9,0,1.5,0.2,2,0.7c0.5,0.5,0.8,1.1,0.9,2h-1.1
		c-0.1-0.6-0.3-1.1-0.6-1.4s-0.7-0.4-1.3-0.4c-0.7,0-1.2,0.2-1.6,0.7c-0.4,0.5-0.6,1.2-0.6,2.1v0.8c0,0.9,0.2,1.6,0.5,2.1
		c0.4,0.5,0.9,0.8,1.5,0.8c0.6,0,1-0.1,1.4-0.4c0.3-0.3,0.5-0.7,0.6-1.4H86.4z"/>
	<path class="st1" d="M94.5,46.7c0,0.8-0.1,1.5-0.4,2.1c-0.3,0.6-0.6,1-1.1,1.3c-0.5,0.3-1,0.5-1.7,0.5c-0.6,0-1.2-0.2-1.7-0.5
		c-0.5-0.3-0.9-0.8-1.1-1.3s-0.4-1.2-0.4-2v-0.6c0-0.8,0.1-1.5,0.4-2s0.6-1,1.1-1.4c0.5-0.3,1-0.5,1.7-0.5c0.6,0,1.2,0.2,1.7,0.5
		c0.5,0.3,0.9,0.8,1.1,1.3c0.3,0.6,0.4,1.3,0.4,2.1V46.7z M93.4,46.2c0-1-0.2-1.7-0.6-2.2c-0.4-0.5-0.9-0.8-1.6-0.8
		c-0.7,0-1.2,0.3-1.6,0.8c-0.4,0.5-0.6,1.2-0.6,2.1v0.6c0,0.9,0.2,1.6,0.6,2.2c0.4,0.5,0.9,0.8,1.6,0.8c0.7,0,1.2-0.2,1.6-0.7
		c0.4-0.5,0.6-1.2,0.6-2.1V46.2z"/>
	<path class="st1" d="M97.6,49.6h3.8v0.9h-4.9v-8h1.1V49.6z"/>
	<path class="st1" d="M104.1,49.6h3.8v0.9H103v-8h1.1V49.6z"/>
	<path class="st1" d="M114.1,46.8h-3.5v2.8h4v0.9h-5.1v-8h5v0.9h-4v2.6h3.5V46.8z"/>
	<path class="st1" d="M122.3,49.4c-0.3,0.4-0.7,0.7-1.1,0.9c-0.5,0.2-1.1,0.3-1.7,0.3c-0.7,0-1.2-0.2-1.7-0.5
		c-0.5-0.3-0.9-0.7-1.2-1.3c-0.3-0.6-0.4-1.2-0.4-2v-0.7c0-1.2,0.3-2.1,0.8-2.8c0.6-0.7,1.4-1,2.4-1c0.8,0,1.5,0.2,2,0.6
		c0.5,0.4,0.8,1,0.9,1.8h-1.1c-0.2-1.1-0.8-1.6-1.9-1.6c-0.7,0-1.2,0.2-1.6,0.7c-0.4,0.5-0.5,1.2-0.6,2.2v0.7c0,0.9,0.2,1.6,0.6,2.1
		s1,0.8,1.7,0.8c0.4,0,0.7,0,1-0.1s0.5-0.2,0.7-0.4v-1.8h-1.9v-0.9h2.9V49.4z"/>
	<path class="st1" d="M129,46.8h-3.5v2.8h4v0.9h-5.1v-8h5v0.9h-4v2.6h3.5V46.8z"/>
	<path class="st1" d="M140.8,46.7c0,0.8-0.1,1.5-0.4,2.1c-0.3,0.6-0.6,1-1.1,1.3c-0.5,0.3-1,0.5-1.7,0.5c-0.6,0-1.2-0.2-1.7-0.5
		c-0.5-0.3-0.9-0.8-1.1-1.3c-0.3-0.6-0.4-1.2-0.4-2v-0.6c0-0.8,0.1-1.5,0.4-2c0.3-0.6,0.6-1,1.1-1.4s1-0.5,1.7-0.5
		c0.6,0,1.2,0.2,1.7,0.5c0.5,0.3,0.9,0.8,1.1,1.3c0.3,0.6,0.4,1.3,0.4,2.1V46.7z M139.7,46.2c0-1-0.2-1.7-0.6-2.2
		c-0.4-0.5-0.9-0.8-1.6-0.8c-0.7,0-1.2,0.3-1.6,0.8c-0.4,0.5-0.6,1.2-0.6,2.1v0.6c0,0.9,0.2,1.6,0.6,2.2c0.4,0.5,0.9,0.8,1.6,0.8
		c0.7,0,1.2-0.2,1.6-0.7s0.6-1.2,0.6-2.1V46.2z"/>
	<path class="st1" d="M147.2,46.9h-3.4v3.5h-1.1v-8h5v0.9h-3.9v2.7h3.4V46.9z"/>
	<path class="st1" d="M158.9,50.5h-1.1l-4-6.2v6.2h-1.1v-8h1.1l4,6.2v-6.2h1.1V50.5z"/>
	<path class="st1" d="M165.7,48.4h-3.4l-0.8,2.1h-1.1l3.1-8h0.9l3.1,8h-1.1L165.7,48.4z M162.7,47.5h2.7l-1.4-3.7L162.7,47.5z"/>
	<path class="st1" d="M173.9,43.3h-2.6v7.1h-1.1v-7.1h-2.6v-0.9h6.2V43.3z"/>
	<path class="st1" d="M181.2,42.5v5.4c0,0.8-0.2,1.4-0.7,1.9s-1.1,0.8-1.9,0.8l-0.3,0c-0.9,0-1.6-0.2-2.1-0.7
		c-0.5-0.5-0.8-1.1-0.8-2v-5.5h1v5.4c0,0.6,0.2,1,0.5,1.4s0.8,0.5,1.4,0.5c0.6,0,1.1-0.2,1.4-0.5c0.3-0.3,0.5-0.8,0.5-1.3v-5.4
		H181.2z"/>
	<path class="st1" d="M186.3,47.2h-1.9v3.2h-1.1v-8h2.7c0.9,0,1.6,0.2,2.1,0.6s0.7,1,0.7,1.8c0,0.5-0.1,0.9-0.4,1.3
		c-0.3,0.4-0.6,0.6-1.1,0.8l1.9,3.4v0.1H188L186.3,47.2z M184.4,46.4h1.6c0.5,0,0.9-0.1,1.3-0.4c0.3-0.3,0.5-0.6,0.5-1.1
		c0-0.5-0.1-0.9-0.4-1.1c-0.3-0.3-0.7-0.4-1.3-0.4h-1.6V46.4z"/>
	<path class="st1" d="M195.2,48.4h-3.4l-0.8,2.1H190l3.1-8h0.9l3.1,8h-1.1L195.2,48.4z M192.1,47.5h2.7l-1.4-3.7L192.1,47.5z"/>
	<path class="st1" d="M199.6,49.6h3.8v0.9h-4.9v-8h1.1V49.6z"/>
	<path class="st1" d="M210.6,46.9c-0.9-0.3-1.6-0.6-2-1s-0.6-0.8-0.6-1.4c0-0.6,0.3-1.2,0.8-1.6c0.5-0.4,1.2-0.6,2-0.6
		c0.5,0,1,0.1,1.5,0.3c0.4,0.2,0.8,0.5,1,0.9c0.2,0.4,0.4,0.8,0.4,1.2h-1.1c0-0.5-0.2-0.9-0.5-1.1c-0.3-0.3-0.7-0.4-1.3-0.4
		c-0.5,0-0.9,0.1-1.2,0.3c-0.3,0.2-0.4,0.5-0.4,1c0,0.3,0.1,0.6,0.4,0.8c0.3,0.2,0.7,0.4,1.4,0.6s1.2,0.4,1.6,0.6
		c0.4,0.2,0.7,0.5,0.8,0.8s0.3,0.7,0.3,1.1c0,0.6-0.3,1.2-0.8,1.6c-0.5,0.4-1.2,0.6-2,0.6c-0.6,0-1.1-0.1-1.5-0.3s-0.8-0.5-1.1-0.9
		s-0.4-0.8-0.4-1.2h1.1c0,0.5,0.2,0.9,0.5,1.1c0.4,0.3,0.8,0.4,1.4,0.4c0.6,0,1-0.1,1.3-0.3s0.4-0.5,0.4-0.9s-0.1-0.7-0.4-0.9
		C211.9,47.3,211.4,47.1,210.6,46.9z"/>
	<path class="st1" d="M221.3,47.9c-0.1,0.8-0.4,1.5-0.9,2c-0.5,0.5-1.2,0.7-2.1,0.7c-0.9,0-1.7-0.3-2.3-1s-0.9-1.6-0.9-2.7v-0.8
		c0-0.7,0.1-1.4,0.4-2c0.3-0.6,0.6-1,1.1-1.3c0.5-0.3,1.1-0.5,1.7-0.5c0.9,0,1.5,0.2,2,0.7c0.5,0.5,0.8,1.1,0.9,2h-1.1
		c-0.1-0.6-0.3-1.1-0.6-1.4c-0.3-0.3-0.7-0.4-1.3-0.4c-0.7,0-1.2,0.2-1.6,0.7c-0.4,0.5-0.6,1.2-0.6,2.1v0.8c0,0.9,0.2,1.6,0.5,2.1
		c0.4,0.5,0.9,0.8,1.5,0.8c0.6,0,1-0.1,1.4-0.4c0.3-0.3,0.5-0.7,0.6-1.4H221.3z"/>
	<path class="st1" d="M224.3,50.5h-1.1v-8h1.1V50.5z"/>
	<path class="st1" d="M231.3,46.8h-3.5v2.8h4v0.9h-5.1v-8h5v0.9h-4v2.6h3.5V46.8z"/>
	<path class="st1" d="M239.7,50.5h-1.1l-4-6.2v6.2h-1.1v-8h1.1l4,6.2v-6.2h1.1V50.5z"/>
	<path class="st1" d="M248,47.9c-0.1,0.8-0.4,1.5-0.9,2c-0.5,0.5-1.2,0.7-2.1,0.7c-0.9,0-1.7-0.3-2.3-1s-0.9-1.6-0.9-2.7v-0.8
		c0-0.7,0.1-1.4,0.4-2c0.3-0.6,0.6-1,1.1-1.3c0.5-0.3,1.1-0.5,1.7-0.5c0.9,0,1.5,0.2,2,0.7c0.5,0.5,0.8,1.1,0.9,2h-1.1
		c-0.1-0.6-0.3-1.1-0.6-1.4c-0.3-0.3-0.7-0.4-1.3-0.4c-0.7,0-1.2,0.2-1.6,0.7c-0.4,0.5-0.6,1.2-0.6,2.1v0.8c0,0.9,0.2,1.6,0.5,2.1
		c0.4,0.5,0.9,0.8,1.5,0.8c0.6,0,1-0.1,1.4-0.4c0.3-0.3,0.5-0.7,0.6-1.4H248z"/>
	<path class="st1" d="M254.4,46.8h-3.5v2.8h4v0.9h-5.1v-8h5v0.9h-4v2.6h3.5V46.8z"/>
</g>
<g>
	<path class="st1" d="M82.9,58.2c-0.9-0.3-1.6-0.6-2-1s-0.6-0.8-0.6-1.4c0-0.6,0.3-1.2,0.8-1.6c0.5-0.4,1.2-0.6,2-0.6
		c0.5,0,1,0.1,1.5,0.3c0.4,0.2,0.8,0.5,1,0.9s0.4,0.8,0.4,1.2h-1.1c0-0.5-0.2-0.9-0.5-1.1c-0.3-0.3-0.7-0.4-1.3-0.4
		c-0.5,0-0.9,0.1-1.2,0.3c-0.3,0.2-0.4,0.5-0.4,1c0,0.3,0.1,0.6,0.4,0.8c0.3,0.2,0.7,0.4,1.4,0.6c0.7,0.2,1.2,0.4,1.6,0.6
		s0.7,0.5,0.8,0.8s0.3,0.7,0.3,1.1c0,0.6-0.3,1.2-0.8,1.6c-0.5,0.4-1.2,0.6-2,0.6c-0.6,0-1.1-0.1-1.5-0.3s-0.8-0.5-1.1-0.9
		c-0.3-0.4-0.4-0.8-0.4-1.2h1.1c0,0.5,0.2,0.9,0.5,1.1C82,60.9,82.4,61,83,61c0.6,0,1-0.1,1.3-0.3s0.4-0.5,0.4-0.9s-0.1-0.7-0.4-0.9
		C84.1,58.6,83.6,58.4,82.9,58.2z"/>
	<path class="st1" d="M92.5,58.1h-3.5v2.8h4v0.9H88v-8h5v0.9h-4v2.6h3.5V58.1z"/>
	<path class="st1" d="M101.4,58c0,0.8-0.1,1.5-0.4,2.1c-0.3,0.6-0.6,1-1.1,1.3c-0.5,0.3-1,0.5-1.7,0.5c-0.6,0-1.2-0.2-1.7-0.5
		c-0.5-0.3-0.9-0.8-1.1-1.3s-0.4-1.2-0.4-2v-0.6c0-0.8,0.1-1.5,0.4-2s0.6-1,1.1-1.4c0.5-0.3,1-0.5,1.7-0.5c0.6,0,1.2,0.2,1.7,0.5
		c0.5,0.3,0.9,0.8,1.1,1.3c0.3,0.6,0.4,1.3,0.4,2.1V58z M100.4,57.5c0-1-0.2-1.7-0.6-2.2c-0.4-0.5-0.9-0.8-1.6-0.8
		c-0.7,0-1.2,0.3-1.6,0.8c-0.4,0.5-0.6,1.2-0.6,2.1V58c0,0.9,0.2,1.6,0.6,2.2c0.4,0.5,0.9,0.8,1.6,0.8c0.7,0,1.2-0.2,1.6-0.7
		c0.4-0.5,0.6-1.2,0.6-2.1V57.5z"/>
	<path class="st1" d="M109.5,53.7v5.4c0,0.8-0.2,1.4-0.7,1.9c-0.5,0.5-1.1,0.8-1.9,0.8l-0.3,0c-0.9,0-1.6-0.2-2.1-0.7
		c-0.5-0.5-0.8-1.1-0.8-2v-5.5h1v5.4c0,0.6,0.2,1,0.5,1.4c0.3,0.3,0.8,0.5,1.4,0.5c0.6,0,1.1-0.2,1.4-0.5c0.3-0.3,0.5-0.8,0.5-1.3
		v-5.4H109.5z"/>
	<path class="st1" d="M113,60.9h3.8v0.9h-4.9v-8h1.1V60.9z"/>
	<path class="st1" d="M128.6,61.8h-1.1l-4-6.2v6.2h-1.1v-8h1.1l4,6.2v-6.2h1.1V61.8z"/>
	<path class="st1" d="M135.8,59.7h-3.4l-0.8,2.1h-1.1l3.1-8h0.9l3.1,8h-1.1L135.8,59.7z M132.8,58.8h2.7l-1.4-3.7L132.8,58.8z"/>
	<path class="st1" d="M144.4,54.6h-2.6v7.1h-1.1v-7.1h-2.6v-0.9h6.2V54.6z"/>
	<path class="st1" d="M147.5,61.8h-1.1v-8h1.1V61.8z"/>
	<path class="st1" d="M156.5,58c0,0.8-0.1,1.5-0.4,2.1c-0.3,0.6-0.6,1-1.1,1.3c-0.5,0.3-1,0.5-1.7,0.5c-0.6,0-1.2-0.2-1.7-0.5
		c-0.5-0.3-0.9-0.8-1.1-1.3c-0.3-0.6-0.4-1.2-0.4-2v-0.6c0-0.8,0.1-1.5,0.4-2c0.3-0.6,0.6-1,1.1-1.4s1-0.5,1.7-0.5
		c0.6,0,1.2,0.2,1.7,0.5c0.5,0.3,0.9,0.8,1.1,1.3c0.3,0.6,0.4,1.3,0.4,2.1V58z M155.4,57.5c0-1-0.2-1.7-0.6-2.2
		c-0.4-0.5-0.9-0.8-1.6-0.8c-0.7,0-1.2,0.3-1.6,0.8c-0.4,0.5-0.6,1.2-0.6,2.1V58c0,0.9,0.2,1.6,0.6,2.2c0.4,0.5,0.9,0.8,1.6,0.8
		c0.7,0,1.2-0.2,1.6-0.7s0.6-1.2,0.6-2.1V57.5z"/>
	<path class="st1" d="M165,61.8H164l-4-6.2v6.2h-1.1v-8h1.1l4,6.2v-6.2h1.1V61.8z"/>
	<path class="st1" d="M172.3,59.7h-3.4l-0.8,2.1h-1.1l3.1-8h0.9l3.1,8H173L172.3,59.7z M169.2,58.8h2.7l-1.4-3.7L169.2,58.8z"/>
	<path class="st1" d="M177.1,60.9h3.8v0.9H176v-8h1.1V60.9z"/>
	<path class="st1" d="M192.1,53.7v5.4c0,0.8-0.2,1.4-0.7,1.9s-1.1,0.8-1.9,0.8l-0.3,0c-0.9,0-1.6-0.2-2.1-0.7
		c-0.5-0.5-0.8-1.1-0.8-2v-5.5h1v5.4c0,0.6,0.2,1,0.5,1.4s0.8,0.5,1.4,0.5c0.6,0,1.1-0.2,1.4-0.5c0.3-0.3,0.5-0.8,0.5-1.3v-5.4
		H192.1z"/>
	<path class="st1" d="M200.8,61.8h-1.1l-4-6.2v6.2h-1.1v-8h1.1l4,6.2v-6.2h1.1V61.8z"/>
	<path class="st1" d="M204.6,61.8h-1.1v-8h1.1V61.8z"/>
	<path class="st1" d="M210,60.4l2.3-6.6h1.2l-3,8h-0.9l-3-8h1.2L210,60.4z"/>
	<path class="st1" d="M219.9,58.1h-3.5v2.8h4v0.9h-5.1v-8h5v0.9h-4v2.6h3.5V58.1z"/>
	<path class="st1" d="M225.5,58.5h-1.9v3.2h-1.1v-8h2.7c0.9,0,1.6,0.2,2.1,0.6s0.7,1,0.7,1.8c0,0.5-0.1,0.9-0.4,1.3
		c-0.3,0.4-0.6,0.6-1.1,0.8l1.9,3.4v0.1h-1.1L225.5,58.5z M223.7,57.7h1.6c0.5,0,0.9-0.1,1.3-0.4c0.3-0.3,0.5-0.6,0.5-1.1
		c0-0.5-0.1-0.9-0.4-1.1c-0.3-0.3-0.7-0.4-1.3-0.4h-1.6V57.7z"/>
	<path class="st1" d="M232.7,58.2c-0.9-0.3-1.6-0.6-2-1s-0.6-0.8-0.6-1.4c0-0.6,0.3-1.2,0.8-1.6c0.5-0.4,1.2-0.6,2-0.6
		c0.5,0,1,0.1,1.5,0.3c0.4,0.2,0.8,0.5,1,0.9c0.2,0.4,0.4,0.8,0.4,1.2h-1.1c0-0.5-0.2-0.9-0.5-1.1c-0.3-0.3-0.7-0.4-1.3-0.4
		c-0.5,0-0.9,0.1-1.2,0.3c-0.3,0.2-0.4,0.5-0.4,1c0,0.3,0.1,0.6,0.4,0.8c0.3,0.2,0.7,0.4,1.4,0.6s1.2,0.4,1.6,0.6
		c0.4,0.2,0.7,0.5,0.8,0.8s0.3,0.7,0.3,1.1c0,0.6-0.3,1.2-0.8,1.6c-0.5,0.4-1.2,0.6-2,0.6c-0.6,0-1.1-0.1-1.5-0.3s-0.8-0.5-1.1-0.9
		s-0.4-0.8-0.4-1.2h1.1c0,0.5,0.2,0.9,0.5,1.1c0.4,0.3,0.8,0.4,1.4,0.4c0.6,0,1-0.1,1.3-0.3s0.4-0.5,0.4-0.9s-0.1-0.7-0.4-0.9
		C233.9,58.6,233.5,58.4,232.7,58.2z"/>
	<path class="st1" d="M239,61.8H238v-8h1.1V61.8z"/>
	<path class="st1" d="M247.1,54.6h-2.6v7.1h-1.1v-7.1h-2.6v-0.9h6.2V54.6z"/>
	<path class="st1" d="M251.7,57.8l2.1-4h1.2l-2.8,5v3h-1.1v-3l-2.8-5h1.2L251.7,57.8z"/>
</g>
<g>
	<path class="st0" d="M115.4,36.8c-4.2,0-7.7-2.9-9.2-7v0l0,0c-1.4-4.7,0-8.6,0-8.6c1.5-4.1,5-7,9.2-7h12.7c0,0,2,0,2,2
		c0,1.1-0.9,2-2,2h-11.7c-2.7,0-5,1.7-5.9,4.3c-0.2,0.5-1.1,3.1,0.1,6.1c0,0,2,4.3,5.9,4.3h11.7c0,0,1.9,0.1,1.9,2c0,1-0.9,2-2,2
		H115.4"/>
	<path class="st0" d="M212.2,36.8c-4.2,0-7.7-2.9-9.2-7v0l0,0c-1.4-4.7,0-8.6,0-8.6c1.5-4.1,5-7,9.2-7H225c0,0,2,0,2,2
		c0,1.1-0.9,2-2,2h-11.6c-2.7,0-5,1.7-5.9,4.3c-0.2,0.5-1.1,3.1,0.1,6.1c0,0,2,4.3,5.9,4.3h11.7c0,0,1.9,0.1,1.9,2c0,1-0.9,2-2,2
		H212.2"/>
	<path class="st0" d="M136.5,14.3c-1.2,0-2.3,1-2.3,2.3v18.1c0,1.2,1,2.3,2.3,2.3c1.3,0,2.3-1,2.3-2.3V16.6
		C138.8,15.4,137.8,14.3,136.5,14.3"/>
	<path class="st0" d="M95.5,23.6c-0.4,0-7.1,0-7.4-0.1c-1.1,0-3.6-0.3-3.6-2.8c0-0.3,0-2.7,3.6-2.7c2.3,0,14.3,0,14.3,0h0
		c0.9-0.1,1.5-1.1,1.5-2c0-0.9-0.5-1.7-1.5-1.9H87.6c0,0-7.5-0.3-7.5,6.6c0,6.8,7.1,6.6,8.4,6.6c0.4,0,7.2,0,7.2,0
		c3.9,0,3.8,2.5,3.8,2.9c0,2.7-3.7,2.7-3.7,2.7H81.5l0,0c-0.9,0.2-1.4,1-1.4,1.9c0,0.9,0.5,1.8,1.4,1.9h14c0,0,8.4,0.5,8.4-6.6
		C103.9,29.1,103.5,23.7,95.5,23.6"/>
	<path class="st0" d="M151.8,36.8c-4.2,0-7.7-2.9-9.2-7v0l0,0c-1.4-4.7,0-8.6,0-8.6c1.5-4.1,5-7,9.2-7h14.5c0,0,1.7,0,1.7,2
		c0,1.1-0.9,2-2,2H153c-3,0-5.3,2.2-6.1,5.3h18.5c1.2,0,2.3,0.9,2.3,2.1c0,1.1-1,2-2.3,2h-18.5c0.8,3.1,2.9,5.3,5.9,5.3h14
		l12.4-17.7c0.4-0.6,1.1-0.9,1.8-1c0.7,0,1.4,0.3,1.8,0.8l11,13.6V6.8h-4.6c-1.2,0-2.2-1-2.2-2.2c0-1.2,1-2.2,2.2-2.2h6.8
		c0.6,0,1.2,0.2,1.6,0.7c0.4,0.4,0.7,1,0.7,1.6v3.5h3.2c1.1,0,1.9,0.9,1.9,2c0,1.1-0.9,2-1.9,2h-3.2v1.6h3.2c1.1,0,1.9,0.9,1.9,2
		c0,1.1-0.9,2-1.9,2h-3.2V35c0,0.9-0.6,1.8-1.5,2.1c0,0-1.4,0.5-2.5-0.7l-13.1-16.2l-11,15.7c0,0-0.5,0.9-2,0.9H151.8"/>
	<path class="st0" d="M238.1,36.8c-4.2,0-7.7-2.9-9.2-7c0,0,0,0,0,0v0c-1.4-4.7,0-8.6,0-8.6c1.5-4.1,5-7,9.2-7h14.2c0,0,2,0,2,2
		c0,1.1-0.9,2-2,2h-13.1c-3.1,0-5.3,2.2-6.1,5.3h18.5c1.3,0,2.3,0.9,2.3,2.1c0,1.1-1,2-2.3,2h-18.5c0.8,3.1,2.9,5.3,5.9,5.3h13.4
		c0,0,1.9,0.1,1.9,2c0,1-0.9,2-2,2H238.1"/>
</g>
</svg>
